<svg xmlns="http://www.w3.org/2000/svg" viewBox="0 0 210.52 210.53"><defs><style>.cls-1{fill:#fff;}.cls-2{fill:#040301;}</style></defs><title>angry</title><g id="Layer_2" data-name="Layer 2"><g id="Layer_2-2" data-name="Layer 2"><circle class="cls-1" cx="105.26" cy="105.26" r="96.76"/><path class="cls-2" d="M105.26,210.53A105.27,105.27,0,1,1,210.52,105.26,105.39,105.39,0,0,1,105.26,210.53Zm0-193.53a88.27,88.27,0,1,0,88.26,88.26A88.36,88.36,0,0,0,105.26,17Z"/><path class="cls-2" d="M77.72,142.67c0-7.91,12.33-14.32,27.54-14.32s27.54,6.41,27.54,14.32-12.33-.9-27.54-.9S77.72,150.57,77.72,142.67Z"/><path class="cls-1" d="M40,91.62C43.51,77,55.58,78.94,70.19,82.46s26.25,7.27,22.74,21.88A27.22,27.22,0,1,1,40,91.62Z"/><path class="cls-2" d="M66.52,129.21a31.83,31.83,0,0,1-7.36-.87,31.2,31.2,0,0,1-23-37.66h0c2-8.28,6.76-13.12,14.16-14.38,6.16-1.06,13.39.47,20.87,2.27S85.74,82.29,90.75,86c6,4.49,8.06,11,6.07,19.25a31.25,31.25,0,0,1-30.3,23.93ZM54.58,84a18.62,18.62,0,0,0-3,.22c-2.94.51-6.16,1.89-7.72,8.37h0A23.22,23.22,0,1,0,89,103.41c1.56-6.48-.68-9.18-3.07-11-3.8-2.83-10.34-4.56-16.71-6.09C64.14,85.12,58.87,84,54.58,84Z"/><circle class="cls-2" cx="65.88" cy="100.41" r="15.09"/><ellipse class="cls-1" cx="53.92" cy="107.35" rx="3.23" ry="4.68" transform="translate(-63.06 134.68) rotate(-76.48)"/><path class="cls-2" d="M40.42,62.31a24.12,24.12,0,0,1,9.12-3.64,23.27,23.27,0,0,1,10.52.71A33.8,33.8,0,0,1,69.48,64a65.86,65.86,0,0,1,7.58,6.19c2.28,2.14,4.4,4.25,6.37,6.15a64.49,64.49,0,0,0,5.31,4.51c.7.45,1.27.88,1.71,1.11a5.21,5.21,0,0,0,1.57.71l.58.07a1.81,1.81,0,0,0,.67.05l.75,0h.4l.42-.07.9-.13a4.6,4.6,0,0,0,1-.16c.66-.15,1.36-.28,2.11-.39l.72-.1a3.86,3.86,0,0,1,4,5.65,23.73,23.73,0,0,1-1.44,2.34A16.5,16.5,0,0,1,100.13,92a14.16,14.16,0,0,1-7.2,3.79,11,11,0,0,1-1.81.3A16.65,16.65,0,0,1,87.38,96a16.31,16.31,0,0,1-3.5-.88,13.89,13.89,0,0,1-1.55-.66c-.5-.24-1-.49-1.47-.75a31.85,31.85,0,0,1-8.17-7.19c-2.13-2.43-3.91-4.84-5.67-7.1C63.51,74.88,60.27,70.82,56.25,68a20.5,20.5,0,0,0-6.83-3.17,36,36,0,0,0-8.49-.9h0A.87.87,0,0,1,40,63,.88.88,0,0,1,40.42,62.31Z"/><path class="cls-1" d="M170.53,91.62C167,77,155,78.94,140.33,82.46s-26.25,7.27-22.73,21.88a27.22,27.22,0,1,0,52.93-12.72Z"/><path class="cls-2" d="M144,129.21a31.23,31.23,0,0,1-30.3-23.93c-2-8.28.05-14.76,6.06-19.25,5-3.74,12.15-5.66,19.63-7.46s14.7-3.33,20.87-2.27c7.4,1.26,12.16,6.1,14.15,14.38h0a31.22,31.22,0,0,1-23.06,37.66A31.81,31.81,0,0,1,144,129.21ZM156,84c-4.3,0-9.57,1.16-14.68,2.39-6.38,1.53-12.92,3.26-16.71,6.09-2.4,1.79-4.63,4.49-3.07,11a23.22,23.22,0,1,0,45.15-10.86h0c-1.56-6.48-4.78-7.86-7.72-8.37A18.58,18.58,0,0,0,156,84Z"/><circle class="cls-2" cx="144.65" cy="100.41" r="15.09"/><ellipse class="cls-1" cx="156.6" cy="107.35" rx="4.68" ry="3.23" transform="translate(-20.75 39.58) rotate(-13.52)"/><path class="cls-2" d="M169.59,63.93a35.82,35.82,0,0,0-8.48.9A20.55,20.55,0,0,0,154.27,68c-4,2.82-7.26,6.88-10.76,11.39-1.76,2.26-3.54,4.67-5.67,7.1a31.91,31.91,0,0,1-8.18,7.19c-.44.26-1,.51-1.46.75a14.73,14.73,0,0,1-1.55.66,16.31,16.31,0,0,1-3.5.88,16.67,16.67,0,0,1-3.74.12,11,11,0,0,1-1.82-.3,15.84,15.84,0,0,1-1.74-.46A16,16,0,0,1,110.39,92a16.41,16.41,0,0,1-1.91-2.12A23.83,23.83,0,0,1,107,87.54a3.86,3.86,0,0,1,4-5.65l.72.1c.76.11,1.45.24,2.11.39a4.7,4.7,0,0,0,1,.16l.89.13.43.07h.4l.75,0a1.78,1.78,0,0,0,.66-.05l.58-.07a5.4,5.4,0,0,0,1.58-.71c.44-.23,1-.66,1.7-1.11a64.4,64.4,0,0,0,5.32-4.51c2-1.9,4.09-4,6.36-6.15A65.13,65.13,0,0,1,141.05,64a33.66,33.66,0,0,1,9.42-4.59A23.22,23.22,0,0,1,161,58.67a24.17,24.17,0,0,1,9.13,3.64.89.89,0,0,1,.26,1.22.9.9,0,0,1-.73.4Z"/></g></g></svg>