<svg xmlns="http://www.w3.org/2000/svg" viewBox="0 0 210.53 210.52"><defs><style>.cls-1{fill:#fff;}.cls-2{fill:#040301;}</style></defs><title>confused</title><g id="Layer_2" data-name="Layer 2"><g id="Layer_2-2" data-name="Layer 2"><circle class="cls-1" cx="105.26" cy="105.26" r="96.76"/><path class="cls-2" d="M105.26,210.52A105.26,105.26,0,1,1,210.53,105.26,105.38,105.38,0,0,1,105.26,210.52Zm0-193.52a88.26,88.26,0,1,0,88.27,88.26A88.36,88.36,0,0,0,105.26,17Z"/><path class="cls-2" d="M76.5,159.74a65.55,65.55,0,0,1,13-14.88,60.24,60.24,0,0,1,8.41-5.9,58.78,58.78,0,0,1,9.67-4.36,43.62,43.62,0,0,1,10.75-2.31,29.65,29.65,0,0,1,11.22,1.36,26.58,26.58,0,0,1,10,5.66,21.92,21.92,0,0,1,3.76,4.45,16.91,16.91,0,0,1,1.34,2.61,14.09,14.09,0,0,1,.86,2.79,2.85,2.85,0,0,1-2.23,3.37,2.77,2.77,0,0,1-1.54-.11l-.41-.15c-1.54-.56-2.87-1.07-4.2-1.49s-2.57-.78-3.84-1.07a73.35,73.35,0,0,0-7.35-1.38c-2.44-.34-4.89-.55-7.43-.71a44.27,44.27,0,0,0-7.89,0,49.65,49.65,0,0,0-16.2,4.81A94.16,94.16,0,0,0,78.91,162l0,0a1.67,1.67,0,0,1-2.39-2.26Z"/><circle class="cls-1" cx="70.91" cy="102.73" r="27.53"/><path class="cls-2" d="M70.91,134.26a31.53,31.53,0,1,1,31.53-31.53A31.56,31.56,0,0,1,70.91,134.26Zm0-55.06a23.53,23.53,0,1,0,23.53,23.53A23.56,23.56,0,0,0,70.91,79.2Z"/><circle class="cls-2" cx="70.91" cy="105.26" r="15.27"/><ellipse class="cls-1" cx="60.79" cy="114.91" rx="4.74" ry="3.26"/><circle class="cls-1" cx="143.44" cy="102.73" r="27.53"/><path class="cls-2" d="M143.44,134.26A31.53,31.53,0,1,1,175,102.73,31.56,31.56,0,0,1,143.44,134.26Zm0-55.06A23.53,23.53,0,1,0,167,102.73,23.56,23.56,0,0,0,143.44,79.2Z"/><circle class="cls-2" cx="143.44" cy="105.26" r="15.27"/><ellipse class="cls-1" cx="133.32" cy="114.91" rx="4.74" ry="3.26"/><path class="cls-2" d="M49.46,60.88A31.44,31.44,0,0,1,60.41,48.15a26.76,26.76,0,0,1,8.46-3.73,25.68,25.68,0,0,1,9.65-.48,33.08,33.08,0,0,1,8.93,2.66A58.73,58.73,0,0,1,95,50.78c4.66,3,8.73,6.34,12.69,9.41,2,1.52,3.92,3,5.86,4.38a66.14,66.14,0,0,0,5.87,3.69,34.15,34.15,0,0,0,6,2.56,25.07,25.07,0,0,0,6.19,1.1,30.1,30.1,0,0,0,13-2.71c1.11-.44,2.17-1,3.27-1.51s2.16-1.13,3.23-1.77c2.15-1.21,4.24-2.61,6.37-4l0,0a1.76,1.76,0,0,1,2.32,2.58,55.19,55.19,0,0,1-11.74,11,39.19,39.19,0,0,1-7.49,4A31.42,31.42,0,0,1,132,81.66a35.22,35.22,0,0,1-17.52-3A57.54,57.54,0,0,1,107,74.71c-2.36-1.42-4.6-2.91-6.74-4.43C96,67.28,92,64.21,88,61.73a46.74,46.74,0,0,0-5.88-3.26,30.1,30.1,0,0,0-5.71-1.9A21.84,21.84,0,0,0,70.75,56a27.82,27.82,0,0,0-6.13,1A61.81,61.81,0,0,0,58,59.25c-2.3.91-4.63,2-7.18,3h0a1,1,0,0,1-1.31-.57A1.05,1.05,0,0,1,49.46,60.88Z"/></g></g></svg>