<svg xmlns="http://www.w3.org/2000/svg" viewBox="0 0 210.53 210.53"><defs><style>.cls-1{fill:#fff;}.cls-2{fill:#040301;}.cls-3{fill:#66b6ff;}</style></defs><title>eh</title><g id="Layer_2" data-name="Layer 2"><g id="Layer_2-2" data-name="Layer 2"><circle class="cls-1" cx="105.26" cy="105.26" r="96.76"/><path class="cls-2" d="M105.26,210.53A105.27,105.27,0,1,1,210.53,105.26,105.39,105.39,0,0,1,105.26,210.53Zm0-193.53a88.27,88.27,0,1,0,88.27,88.26A88.36,88.36,0,0,0,105.26,17Z"/><path class="cls-2" d="M141.72,146.31c0,15.21-16.32,27.54-36.46,27.54S68.8,161.52,68.8,146.31s16.33-15.22,36.46-15.22S141.72,131.1,141.72,146.31Z"/><path class="cls-2" d="M93.41,53.26a24.82,24.82,0,0,1-.86,8.14A29.22,29.22,0,0,1,89.39,69,27.49,27.49,0,0,1,76,80.69a23.88,23.88,0,0,1-9.87,1.77,22.15,22.15,0,0,1-9.64-2.66A20.09,20.09,0,0,1,46.12,65.59a2.73,2.73,0,0,1,2.29-3.11,2.79,2.79,0,0,1,1.77.33l.24.14a44.44,44.44,0,0,0,5.85,2.94,22,22,0,0,0,5.16,1.33,16.48,16.48,0,0,0,8.5-1.34,49,49,0,0,0,9.14-5.66c1.65-1.26,3.44-2.57,5.29-4,1-.7,1.9-1.44,2.93-2.17s2.07-1.49,3.27-2.2l.08,0a1.84,1.84,0,0,1,2.52.65A1.91,1.91,0,0,1,93.41,53.26Z"/><path class="cls-2" d="M120,51.83c1.21.71,2.26,1.46,3.28,2.2s2,1.47,2.92,2.17c1.85,1.45,3.64,2.76,5.3,4a48.71,48.71,0,0,0,9.14,5.66,16.44,16.44,0,0,0,8.5,1.34,22,22,0,0,0,5.16-1.33A45.06,45.06,0,0,0,160.11,63l.23-.13a2.74,2.74,0,0,1,4.07,2.77A20.08,20.08,0,0,1,154,79.8a22.11,22.11,0,0,1-9.64,2.66,23.91,23.91,0,0,1-9.87-1.77A27.53,27.53,0,0,1,121.13,69,29.57,29.57,0,0,1,118,61.4a25.09,25.09,0,0,1-.86-8.14,1.84,1.84,0,0,1,2.77-1.47Z"/><path class="cls-1" d="M167.48,96.2a27.53,27.53,0,0,1-55.06,0c0-15.2,12.32-21.41,27.53-21.41S167.48,81,167.48,96.2Z"/><path class="cls-2" d="M140,127.73a31.56,31.56,0,0,1-31.53-31.52c0-15.92,11.78-25.42,31.53-25.42s31.53,9.5,31.53,25.42A31.56,31.56,0,0,1,140,127.73Zm0-48.94c-8.79,0-23.53,2.26-23.53,17.42a23.53,23.53,0,0,0,47.06,0C163.48,81.05,148.73,78.79,140,78.79Z"/><circle class="cls-2" cx="138.95" cy="98.68" r="15.27"/><ellipse class="cls-1" cx="149.06" cy="89.03" rx="4.74" ry="3.26"/><path class="cls-1" d="M43.05,96.2a27.53,27.53,0,0,0,55.06,0c0-15.2-12.33-21.41-27.53-21.41S43.05,81,43.05,96.2Z"/><path class="cls-2" d="M70.58,127.73A31.56,31.56,0,0,1,39.05,96.21c0-15.92,11.79-25.42,31.53-25.42s31.53,9.5,31.53,25.42A31.56,31.56,0,0,1,70.58,127.73Zm0-48.94c-8.79,0-23.53,2.26-23.53,17.42a23.53,23.53,0,0,0,47.06,0C94.11,81.05,79.37,78.79,70.58,78.79Z"/><circle class="cls-2" cx="71.58" cy="98.68" r="15.27"/><ellipse class="cls-1" cx="61.46" cy="89.03" rx="4.74" ry="3.26"/><path class="cls-3" d="M9.16,60.16c0-7.76,14.05-32.1,14.05-32.1s14,24.34,14,32.1a14,14,0,1,1-28.1,0Z"/><path class="cls-2" d="M23.21,78.21a18.07,18.07,0,0,1-18-18c0-8.41,12.15-29.88,14.59-34.1a4,4,0,0,1,6.92,0c2.44,4.22,14.59,25.69,14.59,34.1A18.07,18.07,0,0,1,23.21,78.21Zm0-41.91c-4.93,9.2-10,20.15-10,23.86a10.05,10.05,0,1,0,20.1,0C33.26,56.45,28.14,45.5,23.21,36.3Z"/></g></g></svg>