<svg xmlns="http://www.w3.org/2000/svg" viewBox="0 0 210.52 210.53"><defs><style>.cls-1{fill:#fff;}.cls-2{fill:#040301;}.cls-3{fill:#e02f2f;}.cls-4{fill:#24242d;}</style></defs><title>funny</title><g id="Layer_2" data-name="Layer 2"><g id="Layer_2-2" data-name="Layer 2"><circle class="cls-1" cx="105.26" cy="105.26" r="96.76"/><path class="cls-2" d="M105.26,210.53A105.27,105.27,0,1,1,210.52,105.26,105.39,105.39,0,0,1,105.26,210.53Zm0-193.53a88.27,88.27,0,1,0,88.26,88.26A88.36,88.36,0,0,0,105.26,17Z"/><path class="cls-2" d="M105.26,94.56c-26.4,0-51,4.21-71.63,11.46a71.63,71.63,0,0,0,143.26,0C156.26,98.77,131.67,94.56,105.26,94.56Z"/><path class="cls-2" d="M165.62,107.83a10.48,10.48,0,0,1-12.22,6l-.94-.23a10.85,10.85,0,0,1-6.32-4.15,10.62,10.62,0,0,1-9.7,3.58c-1-.16-2.05-.31-3.08-.45a10.66,10.66,0,0,1-5.52-2.5,10.38,10.38,0,0,1-7.57,3.85c-2,.1-4,.22-5.92.38a10.39,10.39,0,0,1-8.76-3.7,10.35,10.35,0,0,1-7.27,3.37q-3,.1-5.93.3a10.4,10.4,0,0,1-9.2-4.46,10.62,10.62,0,0,1-6.5,2.94l-3.11.28a10.63,10.63,0,0,1-9-3.49,10.86,10.86,0,0,1-6.24,4l-.94.23c-5.13,1.21-10.45-1.36-12.24-6a225.8,225.8,0,0,1,60.07-7.84A225.62,225.62,0,0,1,165.62,107.83Z"/><path class="cls-3" d="M105.26,133.47a84.15,84.15,0,0,0-37.41,8.37,43.35,43.35,0,0,0,74.82,0A84.08,84.08,0,0,0,105.26,133.47Z"/><path class="cls-4" d="M51.11,77.88a22.55,22.55,0,0,1,.83-7.6,27.06,27.06,0,0,1,3-7,25.78,25.78,0,0,1,5.26-6.18A23.84,23.84,0,0,1,68,52.63a20.84,20.84,0,0,1,9.74-1A19.49,19.49,0,0,1,92.32,62a17.38,17.38,0,0,1,2,7.81A2.79,2.79,0,0,1,90,72.13L89.78,72a50.36,50.36,0,0,0-5.2-3.19,18.28,18.28,0,0,0-4.49-1.65,11.58,11.58,0,0,0-3.6-.18,12.81,12.81,0,0,0-3.25.79A43.59,43.59,0,0,0,65,72.32L60,75.74c-.92.58-1.84,1.23-2.84,1.83a35.32,35.32,0,0,1-3.21,1.84l-.08,0a1.89,1.89,0,0,1-2.53-.85A2,2,0,0,1,51.11,77.88Z"/><path class="cls-4" d="M156.93,79.41a33.79,33.79,0,0,1-3.2-1.84c-1-.6-1.93-1.25-2.85-1.83l-5.06-3.42a43.94,43.94,0,0,0-8.22-4.57,12.81,12.81,0,0,0-3.25-.79,11.6,11.6,0,0,0-3.6.18,18.28,18.28,0,0,0-4.49,1.65,50.36,50.36,0,0,0-5.2,3.19l-.21.15a2.77,2.77,0,0,1-3.86-.75,2.69,2.69,0,0,1-.48-1.57,17.24,17.24,0,0,1,2-7.81,19.49,19.49,0,0,1,14.6-10.34,20.84,20.84,0,0,1,9.74,1,24,24,0,0,1,7.78,4.45,26,26,0,0,1,5.25,6.18,27.09,27.09,0,0,1,3,7,22.81,22.81,0,0,1,.82,7.6,1.89,1.89,0,0,1-2,1.76,2,2,0,0,1-.7-.19Z"/><path class="cls-1" d="M159.85,115.21c-1.65,5.82-6.44,9-11,7.5l-.85-.29a10.26,10.26,0,0,1-5.71-5.23c-2.07,3.39-5.37,5.24-8.77,4.51-.93-.2-1.86-.39-2.79-.56a8.76,8.76,0,0,1-5-3.15c-1.63,2.79-4.07,4.66-6.85,4.85-1.79.12-3.57.27-5.35.47-3.13.34-6-1.52-7.92-4.66-1.65,2.5-4,4.12-6.57,4.25-1.79.09-3.58.21-5.37.38-3.38.3-6.5-2-8.31-5.62a8.72,8.72,0,0,1-5.88,3.7l-2.81.35c-3.18.43-6.16-1.33-8.11-4.39a10.27,10.27,0,0,1-5.65,5.1l-.85.29c-4.64,1.52-9.45-1.71-11.06-7.6a150.67,150.67,0,0,1,54.31-9.87A150.72,150.72,0,0,1,159.85,115.21Z"/></g></g></svg>