<svg xmlns="http://www.w3.org/2000/svg" viewBox="0 0 210.53 210.53"><defs><style>.cls-1{fill:#fff;}.cls-2{fill:#040301;}.cls-3{fill:#ef6291;}.cls-4{fill:#e02f2f;}</style></defs><title>love</title><g id="Layer_2" data-name="Layer 2"><g id="Layer_2-2" data-name="Layer 2"><circle class="cls-1" cx="105.26" cy="105.26" r="96.76"/><path class="cls-2" d="M105.26,210.53A105.27,105.27,0,1,1,210.53,105.26,105.39,105.39,0,0,1,105.26,210.53Zm0-193.53a88.27,88.27,0,1,0,88.27,88.26A88.36,88.36,0,0,0,105.26,17Z"/><ellipse class="cls-3" cx="52.82" cy="129.92" rx="23.19" ry="11.42"/><ellipse class="cls-3" cx="157.71" cy="129.92" rx="23.19" ry="11.42"/><path class="cls-2" d="M132.8,159.94c0,8.72-12.33,15.79-27.54,15.79s-27.54-7.07-27.54-15.79,12.33-8.73,27.54-8.73S132.8,151.21,132.8,159.94Z"/><path class="cls-4" d="M58.29,72.24l-2.47-1.78a19.44,19.44,0,0,0-27.14,4.36h0A19.44,19.44,0,0,0,33,102l2.46,1.78L67,126.53,89.78,95l1.78-2.46a19.44,19.44,0,0,0-4.35-27.15h0a19.44,19.44,0,0,0-27.14,4.36Z"/><path class="cls-2" d="M67,131a4.47,4.47,0,0,1-2.63-.86l-34-24.57A23.94,23.94,0,0,1,57.29,66,23.93,23.93,0,0,1,95.21,95.2l-24.57,34A4.48,4.48,0,0,1,67,131ZM44.45,71.28a14.93,14.93,0,0,0-8.78,27L66,120.24,87.92,89.93A14.94,14.94,0,1,0,63.71,72.42l-1.78,2.46a4.51,4.51,0,0,1-6.28,1l-2.46-1.78A14.9,14.9,0,0,0,44.45,71.28Z"/><path class="cls-4" d="M152.24,72.24l2.46-1.78a19.44,19.44,0,0,1,27.14,4.36h0A19.43,19.43,0,0,1,177.49,102L175,103.74l-31.5,22.79L120.74,95,119,92.57a19.45,19.45,0,0,1,4.36-27.15h0a19.44,19.44,0,0,1,27.14,4.36Z"/><path class="cls-2" d="M143.53,131a4.5,4.5,0,0,1-3.65-1.87l-24.57-34A23.94,23.94,0,0,1,153.24,66a23.94,23.94,0,0,1,26.89,39.58l-34,24.57A4.47,4.47,0,0,1,143.53,131Zm-8.84-64.79a14.93,14.93,0,0,0-12.08,23.69l21.93,30.31,30.31-21.93a14.94,14.94,0,1,0-17.51-24.2l-2.46,1.78a4.52,4.52,0,0,1-6.29-1l-1.78-2.46A14.92,14.92,0,0,0,134.69,66.24Z"/></g></g></svg>