<svg xmlns="http://www.w3.org/2000/svg" viewBox="0 0 245.5 236.41"><defs><style>.cls-1{fill:#fff;}.cls-2{fill:#040301;}</style></defs><title>ok</title><g id="Layer_2" data-name="Layer 2"><g id="Layer_2-2" data-name="Layer 2"><polygon class="cls-1" points="142 227.84 92 224.84 53 199.84 60 111.84 73 81.84 95 63.84 95 16.84 105 8.84 123 12.84 137 31.84 142 57.84 142 86.84 174 86.84 210 81.84 226 87.84 233 101.84 237 117.84 224 131.84 229 150.84 217 164.84 221 181.84 210 198.84 207 219.84 160 227.84 142 227.84"/><path class="cls-2" d="M245.05,114.64c2.06-12.23-3.16-26-12.68-33.48-12-9.44-27.33-7.73-50.54-5.15-9.4,1-20.06,2.23-32.52,2.93a.46.46,0,0,1-.37-.15.45.45,0,0,1-.14-.38c3.28-44.36-7.52-71.7-30.4-77-7.47-1.73-17-3-24.09,2.9-9.44,7.74-9,22.73-8.23,47.56.28,9.18-3.45,13.12-10.23,20.28-5.69,6-12.48,13.2-17.69,25.06A18.83,18.83,0,0,0,49,94.84H19a19.08,19.08,0,0,0-19,19v93.94a19.09,19.09,0,0,0,19,19H49a19.06,19.06,0,0,0,16.18-9.08c17.35,15,46.54,18.11,97.94,18.64h2c28.56,0,47-6.57,53.29-19,1.8-3.55,3.71-10,.43-18.39,6.48-4.55,10.61-10.85,11.68-18.13a24.87,24.87,0,0,0-2.88-15.69c8-6.32,10-13.24,10.17-18.48a22.9,22.9,0,0,0-4-13.13A29.9,29.9,0,0,0,245.05,114.64Zm-16.76-2.81c-.93,5.5-4.82,9.47-11.57,11.81a8.5,8.5,0,0,0-1.29,15.49c3.16,1.73,5.41,4.71,5.34,7.09-.07,2.91-3.7,6.35-9.7,9.22a8.5,8.5,0,0,0-1.44,14.47c3,2.23,4.47,5.39,4,8.47-.56,3.8-4,7.14-9.49,9.15a8.51,8.51,0,0,0-3.86,13.08c1.67,2.22,4.26,6.36,2.89,9.07-1.9,3.75-12.47,10-39.93,9.72-64.34-.67-84.67-5.86-94.57-24.13a9.85,9.85,0,0,0-.7-1.07V125.79c3.11-23.88,12.09-33.37,20.2-41.94,7.55-8,15.36-16.23,14.87-32.47-.44-14.75-.95-31.47,2-33.91,0,0,1.68-1.28,9.49.52,19.74,4.56,18.21,46.44,17.27,59.17a17.5,17.5,0,0,0,18.41,18.75c12.92-.72,23.83-1.93,33.45-3,19-2.12,31.62-3.52,38.16,1.61C225.92,97.7,229.42,105.05,228.29,111.83Z"/><path class="cls-2" d="M95,136.83c1.54.24,3.07.43,4.59.58A86.28,86.28,0,0,0,128,135.24c1.51-.39,3-.81,4.51-1.3a3.47,3.47,0,0,0-.52-6.73c-1.55-.25-3.1-.43-4.65-.59a82.55,82.55,0,0,0-14.32-.08,83.63,83.63,0,0,0-14.14,2.28c-1.48.39-3,.8-4.44,1.28A3.47,3.47,0,0,0,95,136.83Z"/><path class="cls-2" d="M132.59,186.37c-1.47-.53-2.94-1-4.41-1.44a84.89,84.89,0,0,0-14.09-2.81,83.93,83.93,0,0,0-14.37-.46q-2.34.15-4.68.42a3.48,3.48,0,0,0-.77,6.71c1.49.54,3,1,4.47,1.47a87.34,87.34,0,0,0,28.46,3.23c1.54-.1,3.08-.23,4.62-.41A3.48,3.48,0,0,0,132.59,186.37Z"/><path class="cls-2" d="M136.4,155.52c-1.64-.35-3.29-.64-4.93-.9A97.44,97.44,0,0,0,116,153.56a98.61,98.61,0,0,0-15.49,1.29c-1.62.28-3.23.59-4.85,1a3.48,3.48,0,0,0,0,6.78c1.62.34,3.24.62,4.86.88A97.47,97.47,0,0,0,116,164.55a96.25,96.25,0,0,0,15.49-1.28c1.64-.28,3.28-.6,4.92-1A3.48,3.48,0,0,0,136.4,155.52Z"/><path class="cls-2" d="M186.07,97.89a5,5,0,1,0-6.14,7.89c8.89,6.92,11.77,11.48,6.6,21.82-3.16,6.31-2.86,15.82-2.51,26.84.54,17,1.14,36.27-10.37,46.69a5,5,0,0,0,3.35,8.71,4.94,4.94,0,0,0,3.35-1.3c15-13.52,14.24-36.2,13.67-54.42-.3-9.25-.57-18,1.45-22.05C204,115.07,196,105.6,186.07,97.89Z"/></g></g></svg>