<svg xmlns="http://www.w3.org/2000/svg" viewBox="0 0 216 198.6"><defs><style>.cls-1{fill:#040301;}.cls-2{fill:#ffab00;}.cls-3{fill:#fff;}</style></defs><title>logo_1</title><g id="Layer_2" data-name="Layer 2"><g id="Layer_2-2" data-name="Layer 2"><path class="cls-1" d="M178.4,0H38.3C17.2,0,0,16.7,0,37.1V161.6c0,20.7,16.6,37,37.9,37H178.1c21.3,0,37.9-16.3,37.9-37V37.1C216,16.3,199.5,0,178.4,0Z"/><path id="path8" class="cls-2" d="M204.87,157.49c0,17.19-13.83,30.54-31.48,30.54H42.53c-17.66.1-31.39-13.35-31.39-30.54V41.2C11.14,24,25.06,10.47,42.9,10.47h131C191.32,10.47,205,23.92,205,41.2V157.49Z"/><path id="path10" class="cls-3" d="M173,122.1H155.1L152,102.6l-11.5,19.3H122.4l11,11.6-9,19.5,19.8-11.8,15.5,12-2.9-19.7"/><path id="path12" class="cls-1" d="M185.5,118.2H158.4l-4.3-27L138.3,118h-3a23,23,0,0,1-2.5-10.4c0-4.6.3-9.1.3-15,0-7.8-2.3-11.9-8.4-13.4V79c12.9-1.8,18.8-10.4,18.8-22.4,0-17.1-11.4-20.8-26.3-20.8H77.1l-17,80.4H81.4l6.2-29.3h14.2c7.6,0,10.7,3.7,10.7,10.8,0,5.4-.6,9.7-.6,13.8,0,1.5.3,5.1,1.4,6.5l15.4,16.3-13.3,28.5,28.4-16.9L165,162.2l-3.9-26.9,24.4-17.1ZM108.2,71.9h-17l4.1-19.4h15.8c5.6,0,11.5,1.5,11.5,8.3,0,8.7-6.7,11.1-14.4,11.1m36,69.3L124.4,153l9.1-19.4-11-11.6h18.1L152,102.7l3.1,19.5h18l-16.2,11.3,2.9,19.8-15.6-12.1Z"/></g></g></svg>